<svg width="32" height="32" viewBox="0 0 32 32" fill="none" xmlns="http://www.w3.org/2000/svg">
<path d="M9.95536 2.9047C10.1378 2.36402 10.6449 2 11.2155 2H19.7088L10.9035 28.0899C10.721 28.6306 10.2139 28.9946 9.64329 28.9946H3.00261C2.09271 28.9946 1.45147 28.1014 1.74244 27.2393L9.95536 2.9047Z" fill="url(#paint0_linear_5756_90517)"/>
<path d="M22.9359 19.0126H9.57257C9.01113 19.0126 8.74002 19.7002 9.15041 20.0834L18.3134 28.6379C18.5597 28.8678 18.8841 28.9957 19.221 28.9957H26.795L22.9359 19.0126Z" fill="#0078D4"/>
<g opacity="0.5">
<path d="M20.5641 28.9957H26.7951L22.9359 19.0126H17.8541L20.7941 27.7139C20.9513 28.1792 20.8409 28.6535 20.5641 28.9957Z" fill="black"/>
<path d="M15.9095 13.2572L19.7088 2H12.0007C12.1126 2.12942 12.201 2.28143 12.2581 2.45047L15.9095 13.2572Z" fill="black"/>
</g>
<g opacity="0.5">
<path d="M10.9357 2.03279H10.9794C11.3439 2.03279 11.6677 2.26523 11.7844 2.61052L15.6457 14.0387L16.1732 12.4758L12.7318 2.29042C12.7015 2.20091 12.6649 2.11489 12.6225 2.03279H19.6977L19.7088 2H11.2155C11.1201 2 11.0264 2.01019 10.9357 2.02968V2.03279Z" fill="black" fill-opacity="0.5"/>
<path d="M19.3715 28.9957L26.795 28.9957L21.1587 28.9957C21.379 28.5713 21.4384 28.0587 21.2678 27.5538L18.3819 19.0126H17.3263L20.3204 27.8739C20.5065 28.4248 20.0968 28.9957 19.5154 28.9957H19.3715Z" fill="black" fill-opacity="0.5"/>
</g>
<path d="M22.0389 2.90579C21.8564 2.36512 21.3494 2.0011 20.7788 2.0011H11.2732H11.3165C11.8956 2.0011 12.4102 2.37052 12.5954 2.91921L20.795 27.2143C21.0902 28.0892 20.4395 28.9957 19.5161 28.9957H19.3716H28.9917C29.9016 28.9957 30.5428 28.1025 30.2518 27.2404L22.0389 2.90579Z" fill="url(#paint1_linear_5756_90517)"/>
<defs>
<linearGradient id="paint0_linear_5756_90517" x1="11.1719" y1="2.93438" x2="2.36773" y2="28.944" gradientUnits="userSpaceOnUse">
<stop stop-color="#114A8B"/>
<stop offset="1" stop-color="#0669BC"/>
</linearGradient>
<linearGradient id="paint1_linear_5756_90517" x1="16.7539" y1="2.93552" x2="26.4181" y2="28.6834" gradientUnits="userSpaceOnUse">
<stop stop-color="#3CCBF4"/>
<stop offset="1" stop-color="#2892DF"/>
</linearGradient>
</defs>
</svg>
