<svg width="32" height="32" viewBox="0 0 32 32" fill="none" xmlns="http://www.w3.org/2000/svg">
<path d="M29.1666 18.3384C29.1666 24.9443 23.3273 30.5 15.8666 30.5C8.40596 30.5 2.56665 24.9443 2.56665 18.3384C2.56665 11.7326 8.40596 6.17691 15.8666 6.17691C23.3273 6.17691 29.1666 11.7326 29.1666 18.3384Z" stroke="#26A8C5" stroke-width="3"/>
<path d="M7.71906 4.62356L16.3438 0L24.9539 4.62356L16.3438 9.24904L7.71906 4.62356Z" fill="#9CEBFF"/>
<path d="M24.9831 4.60434V13.8226L16.3312 18.4615V9.2279L24.9831 4.60434Z" fill="#32BEDD"/>
<path d="M16.3312 9.2433V18.4615L7.69604 13.8226V4.60434L16.3312 9.2433Z" fill="#50E6FF"/>
<path d="M0.0184326 19.2164L6.93671 15.5077L13.8433 19.2164L6.93671 22.9267L0.0184326 19.2164Z" fill="#9CEBFF"/>
<path d="M13.8667 19.201V26.5954L6.92664 30.3165V22.9098L13.8667 19.201Z" fill="#32BEDD"/>
<path d="M6.92664 22.9221V30.3165L0 26.5954V19.201L6.92664 22.9221Z" fill="#50E6FF"/>
<path d="M18.1517 19.2164L25.07 15.5077L31.9766 19.2164L25.07 22.9267L18.1517 19.2164Z" fill="#9CEBFF"/>
<path d="M32 19.201V26.5954L25.06 30.3165V22.9098L32 19.201Z" fill="#32BEDD"/>
<path d="M25.0599 22.9221V30.3165L18.1333 26.5954V19.201L25.0599 22.9221Z" fill="#50E6FF"/>
</svg>
